<?xml version="1.0" encoding="UTF-8" standalone="no"?>
<!-- Created with Inkscape (http://www.inkscape.org/) -->

<svg
   width="128mm"
   height="128mm"
   viewBox="0 0 128 128"
   version="1.1"
   id="svg5"
   inkscape:export-filename="quarky.svg"
   inkscape:export-xdpi="25.4"
   inkscape:export-ydpi="25.4"
   sodipodi:docname="quarkysilhouette.svg"
   xml:space="preserve"
   inkscape:version="1.3.2 (091e20ef0f, 2023-11-25, custom)"
   xmlns:inkscape="http://www.inkscape.org/namespaces/inkscape"
   xmlns:sodipodi="http://sodipodi.sourceforge.net/DTD/sodipodi-0.dtd"
   xmlns="http://www.w3.org/2000/svg"
   xmlns:svg="http://www.w3.org/2000/svg"><sodipodi:namedview
     id="namedview7"
     pagecolor="#505050"
     bordercolor="#eeeeee"
     borderopacity="1"
     inkscape:showpageshadow="0"
     inkscape:pageopacity="0"
     inkscape:pagecheckerboard="0"
     inkscape:deskcolor="#505050"
     inkscape:document-units="mm"
     showgrid="false"
     inkscape:zoom="1.1868438"
     inkscape:cx="310.48737"
     inkscape:cy="384.21232"
     inkscape:window-width="1920"
     inkscape:window-height="1010"
     inkscape:window-x="0"
     inkscape:window-y="0"
     inkscape:window-maximized="1"
     inkscape:current-layer="layer1" /><defs
     id="defs2" /><g
     inkscape:label="Layer 1"
     inkscape:groupmode="layer"
     id="layer1"
     style="display:inline;font-variation-settings:normal;opacity:1;vector-effect:none;fill:#000000;fill-opacity:1;stroke:#000000;stroke-width:0.529;stroke-linecap:butt;stroke-linejoin:miter;stroke-miterlimit:4;stroke-dasharray:none;stroke-dashoffset:0;stroke-opacity:0;-inkscape-stroke:none;stop-color:#000000;stop-opacity:1"><path
       id="path980-3"
       style="font-variation-settings:normal;display:inline;vector-effect:none;fill:#333333;fill-opacity:1;stroke:#000000;stroke-width:0.529;stroke-linecap:butt;stroke-linejoin:miter;stroke-miterlimit:4;stroke-dasharray:none;stroke-dashoffset:0;stroke-opacity:0;-inkscape-stroke:none;stop-color:#000000;stop-opacity:1"
       d="m 30.140143,14.434448 c -0.82218,3.44e-4 -1.644451,0.01249 -2.466516,0.02429 -0.58518,0.0049 -1.170231,0.0044 -1.755448,0.0026 -0.08369,10e-5 -0.167456,2.1e-5 -0.251148,0 -1.395886,0.04364 -2.769186,0.264035 -4.165637,0.276986 -1.325407,0.0017 -2.627162,0.307556 -3.939811,0.463538 -1.355905,0.116718 -2.681542,0.432172 -4.001823,0.749825 -0.912624,0.309385 -1.875387,0.578384 -2.730066,1.037662 -0.463269,0.248947 -0.535967,0.334449 -0.9436117,0.655257 -0.49561,0.308923 -0.810784,0.793063 -1.169437,1.235584 -0.373849,0.46127 -0.752052,0.903346 -1.104326,1.383895 -0.568487,0.789083 -1.272061,1.506755 -1.712557,2.3828 -0.243725,0.484715 -0.341585,0.845288 -0.503328,1.347721 -0.353231,1.397227 -0.258351,2.85258 -0.233061,4.279843 0.07384,1.12229 -0.124564,2.228442 -0.307475,3.328995 -0.132655,1.301816 -0.448478,2.570009 -0.697631,3.850928 -0.188906,1.56556 -0.389737,3.133049 -0.481625,4.70824 -0.03843,1.179158 -0.210197,2.346147 -0.258899,3.525366 -0.05472,1.7836 0.09694,3.569032 0.268201,5.343343 0.172741,1.07583 0.187743,2.170444 0.331763,3.247864 0.125434,0.575064 0.168776,1.161175 0.1757,1.748214 -0.04045,1.356661 0.01864,2.708823 0.100769,4.062801 0.101812,1.478578 0.152982,2.958694 0.153479,4.440556 -0.06155,1.611844 0.03745,3.216448 0.160197,4.822444 0.08246,2.002038 0.260482,3.997923 0.42633,5.994466 0.157917,1.956349 0.247733,3.925203 0.49196,5.873544 0.153591,1.275338 0.351088,2.542539 0.602547,3.802352 0.305284,1.57703 0.632581,3.156699 1.125513,4.686535 0.364495,1.184769 0.970866,2.263855 1.539957,3.356901 0.649867,1.173953 1.4072427,2.289126 2.1781617,3.386874 0.785155,1.077356 1.789281,1.961599 2.703194,2.923852 0.524901,0.525158 0.977889,1.109414 1.537374,1.598869 0.942351,0.8116 2.060722,1.312977 3.232878,1.692407 1.673334,0.55582 3.438537,0.47613 5.175394,0.46457 1.084126,-0.0296 2.168572,-0.0367 3.253032,-0.0362 0.100499,-0.006 1.734633,-0.011 2.940389,0.0765 1.213632,0.12425 2.431439,0.1844 3.65094,0.1974 0.871479,-0.0822 1.75838,0.0443 2.63188,-0.0134 0.697571,-0.0461 1.396708,-0.15762 2.093929,-0.2191 0.196562,-0.0121 0.392969,-0.0264 0.589628,-0.0367 0.37556,-0.0196 0.576095,-0.0247 0.945162,-0.0253 0.158599,-2.6e-4 0.632706,-0.0208 0.47594,0.004 -0.05904,0.009 -0.119015,0.006 -0.1788,0.006 0.05282,-6.2e-4 0.0665,-6e-5 0.09973,0 1.242554,0.0111 2.485341,0.0148 3.727938,0.0165 1.133731,0.001 2.267095,-5.2e-4 3.400826,-5.2e-4 0.236588,1.6e-4 1.615327,-2.5e-4 0.222209,0 -0.144632,2e-5 0.288936,0 0.433565,0 0.174395,0 0.77604,-1e-5 0.943612,0 1.336825,4e-5 2.67378,1e-5 4.010608,0 0.562668,-0.0304 1.132686,0.0423 1.69447,0 0.457369,-0.0344 0.910798,-0.11225 1.366842,-0.16123 0.898821,-0.0962 1.801835,-0.1149 2.704744,-0.10697 0.03682,1.3e-4 0.04857,3.5e-4 0.07286,5.2e-4 0.15549,0.001 0.311145,0.003 0.466638,0.004 0.662358,0.005 1.324582,0.007 1.986959,0.008 1.386278,0.002 2.77264,8e-5 4.158919,-5.2e-4 0.112273,-2e-5 0.224663,1e-5 0.33693,0 0.135438,-2e-5 0.522946,-10e-6 0.663009,0 0.634014,4e-5 1.268193,5.1e-4 1.90221,5.2e-4 h 3.198771 c 0.840858,-0.14649 1.672879,-0.31764 2.50734,-0.48989 0.335865,-0.12926 0.702957,-0.0123 1.042314,-0.0532 0.312372,-0.0376 0.617345,-0.12276 0.926558,-0.18087 0.398653,-0.10804 0.829656,-0.003 1.229383,-0.0646 0.300558,-0.046 0.593386,-0.134257 0.892452,-0.189137 0.0919,-0.0236 0.253466,-0.0397 0.423746,-0.0512 0.718609,0.01 1.444437,0.004 2.143022,-0.17053 0.410354,0.12114 0.821015,0.25353 1.22008,0.410827 -0.01434,-0.0177 -0.06471,-0.0591 -0.04289,-0.0527 0.33945,0.10006 0.866279,0.51077 1.242818,0.45992 0.06372,-0.009 -0.111922,-0.063 -0.167948,-0.0946 0.334751,0.0649 0.651714,0.28726 1.000456,0.29507 0.03392,7.9e-4 -0.05268,-0.0428 -0.07906,-0.0641 0.05989,0.0176 0.119425,0.035 0.179317,0.0527 0.09858,0.0331 0.196654,0.0689 0.296106,0.0992 0.105915,0.0293 0.211894,0.0591 0.31781,0.0884 0.0031,-0.001 0.0063,-0.002 0.0093,-0.004 0.648483,1.29837 1.316684,2.58769 2.004528,3.86539 0.785781,1.4067 1.569715,2.814 2.352312,4.22248 0.671018,1.23929 1.159878,2.56879 1.76475,3.84215 0.723823,1.49736 1.686736,2.84729 2.625679,4.21163 0.415435,0.71092 0.832174,1.42315 1.431437,1.99781 1.228068,1.29974 1.520529,1.37447 3.778064,0.40721 0.349874,-0.1499 0.87676,-1.48743 1.009758,-1.78697 0.757237,-1.7364 1.372257,-3.52853 2.073267,-5.28754 0.85771,-1.88498 1.8296,-3.73008 2.9714,-5.45961 0.80594,-0.97099 1.53378,-1.99231 2.21795,-3.05149 0.3742,-0.59282 0.67303,-1.21581 0.94619,-1.85416 1.2807,-0.13018 2.56887,-0.15014 3.85507,-0.14986 0.95474,-0.068 1.89136,-0.17617 2.77399,-0.56844 1.76756,-0.78557 -0.28598,0.0493 0.97255,-0.45372 1.12845,-0.68218 2.29427,-1.318527 3.34863,-2.111497 0.70639,-0.543816 1.43468,-1.155322 1.91823,-1.918745 0.30507,-0.481645 0.43331,-0.860013 0.64491,-1.380795 0.63152,-1.318103 0.89083,-2.756725 1.21543,-4.168221 0.2171,-1.251351 0.53052,-2.48275 0.70539,-3.740857 0.31829,-1.899982 0.33078,-3.832526 0.34623,-5.753654 0.002,-1.507373 -0.0186,-3.01434 -0.0248,-4.521687 0.0523,-1.690243 -0.0701,-3.373285 -0.1757,-5.058606 -0.20348,-1.865015 -0.51312,-3.707477 -0.60358,-5.583639 -0.12891,-1.545902 -0.2325,-3.093053 -0.37155,-4.63796 -0.0746,-1.507608 -0.15339,-3.008375 -0.31626,-4.509285 -0.12124,-1.451472 -0.0739,-2.912964 -0.0687,-4.368209 0.0228,-2.236734 0.0397,-4.470095 -0.10284,-6.70295 -0.0433,-1.562734 -0.26855,-3.110193 -0.37569,-4.667932 -0.06,-1.045675 -0.0361,-2.093696 -0.0258,-3.140377 0.0887,-1.175429 -0.16101,-2.314554 -0.49506,-3.432865 -0.46726,-1.240284 -1.18227,-2.37561 -1.9079,-3.479375 -0.99217,-1.46456 -2.25022,-2.706125 -3.55895,-3.883483 -1.41177,-1.224872 -2.9381,-2.309126 -4.43953,-3.419947 -1.03301,-0.745258 -2.12352,-1.410378 -3.27577,-1.954402 -1.5096,-0.846702 -3.18548,-1.291177 -4.85861,-1.681552 -2.28466,-0.426841 -4.543448,-0.976511 -6.844547,-1.311031 -1.709337,-0.242653 -3.426007,-0.429556 -5.14904,-0.537435 -1.49191,-0.127991 -2.984309,-0.227653 -4.479313,-0.309541 -1.600186,-0.157978 -3.196579,-0.357778 -4.792989,-0.551388 -2.168027,-0.303149 -4.350138,-0.482749 -6.52725,-0.708484 -2.384665,-0.304613 -4.784082,-0.435992 -7.179923,-0.612365 -1.855946,-0.171172 -3.719182,-0.155442 -5.580538,-0.149862 -2.158079,0.05265 -4.31257,-0.08874 -6.466272,-0.220659 -2.504229,-0.17661 -5.003999,-0.394913 -7.509103,-0.560172 -2.634275,-0.168224 -5.260878,-0.432923 -7.889957,-0.666109 -2.625639,-0.213319 -5.25296,-0.428479 -7.88479,-0.549837 -0.821743,-0.03514 -1.64382,-0.04634 -2.466,-0.04599 z m 51.074402,85.071815 c 0.03609,0.004 0.14431,0.011 0.108004,0.0124 -0.135972,0.005 -0.172094,0.004 -0.285771,0.007 0.01128,-0.002 0.02222,-0.006 0.03359,-0.008 0.04737,-0.008 0.0962,-0.008 0.144177,-0.0114 z m -1.305863,0.0279 c -0.0085,-0.002 0.02701,-0.003 0.103352,10e-4 0.01608,8e-4 0.04009,0.007 0.05788,0.008 -0.100078,-0.002 -0.152694,-0.007 -0.16123,-0.009 z" /></g></svg>
